<svg width="480" height="414" viewBox="0 0 480 414" fill="none" xmlns="http://www.w3.org/2000/svg">
<path d="M312.558 333.902C291.292 357.907 280.659 369.909 268.378 375.376C250.589 383.296 229.411 383.296 211.621 375.376C199.341 369.909 188.708 357.907 167.442 333.902L96.816 254.183C83.8812 239.582 77.4137 232.282 74.2112 224.466C69.5787 213.16 69.5787 200.84 74.2112 189.534C77.4137 181.718 83.8812 174.418 96.816 159.817L167.442 80.0975C188.708 56.0929 199.341 44.0906 211.621 38.6238C229.411 30.7043 250.589 30.7043 268.378 38.6238C280.659 44.0906 291.292 56.0929 312.558 80.0975L383.184 159.817C396.119 174.418 402.586 181.718 405.789 189.534C410.421 200.84 410.421 213.16 405.789 224.466C402.586 232.282 396.119 239.582 383.184 254.183L312.558 333.902Z" fill="#D45555"/>
</svg>
